<?xml version="1.0" encoding="UTF-8"?>
<svg xmlns="http://www.w3.org/2000/svg" xmlns:xlink="http://www.w3.org/1999/xlink" width="215pt" height="28pt" viewBox="0 0 215 28" version="1.1">
<g id="surface1">
<path style=" stroke:none;fill-rule:nonzero;fill:rgb(100%,100%,100%);fill-opacity:1;" d="M 61.65625 7.628906 C 59.882812 7.628906 58.078125 8.429688 56.863281 9.640625 C 55.621094 10.882812 54.972656 12.542969 54.972656 14.347656 C 54.972656 16.238281 55.652344 17.925781 56.863281 19.136719 C 58.105469 20.382812 59.882812 21.152344 61.65625 21.152344 C 62.898438 21.152344 63.996094 20.824219 65 20.265625 L 65 17.363281 C 64.113281 18.25 62.871094 18.8125 61.65625 18.8125 C 60.417969 18.8125 59.320312 18.371094 58.523438 17.480469 C 57.722656 16.710938 57.28125 15.589844 57.28125 14.34375 C 57.28125 13.222656 57.722656 12.097656 58.523438 11.210938 C 59.292969 10.4375 60.414062 9.96875 61.65625 9.96875 C 62.898438 9.96875 63.996094 10.410156 64.792969 11.210938 C 65.5625 12.097656 66.125 13.222656 66.125 14.34375 L 66.125 20.824219 L 68.464844 20.824219 L 68.464844 14.34375 C 68.464844 12.539062 67.691406 10.855469 66.449219 9.640625 C 65.207031 8.398438 63.550781 7.628906 61.65625 7.628906 Z M 61.65625 7.628906 "/>
<path style=" stroke:none;fill-rule:nonzero;fill:rgb(100%,100%,100%);fill-opacity:1;" d="M 76.421875 7.628906 C 74.644531 7.628906 72.839844 8.429688 71.628906 9.640625 C 70.386719 10.882812 69.734375 12.542969 69.734375 14.347656 C 69.734375 16.238281 70.414062 17.925781 71.628906 19.136719 C 72.871094 20.382812 74.644531 21.152344 76.421875 21.152344 C 77.101562 21.152344 77.664062 21.03125 78.195312 20.914062 C 78.757812 20.796875 79.199219 20.589844 79.761719 20.234375 L 79.761719 17.335938 C 79.316406 17.777344 78.875 18.101562 78.3125 18.339844 C 77.75 18.664062 77.070312 18.78125 76.417969 18.78125 C 75.175781 18.78125 74.082031 18.339844 73.28125 17.453125 C 72.511719 16.683594 72.039062 15.558594 72.039062 14.316406 C 72.039062 13.191406 72.484375 12.066406 73.28125 11.179688 C 74.050781 10.410156 75.175781 9.9375 76.417969 9.9375 C 77.660156 9.9375 78.757812 10.382812 79.554688 11.179688 C 80.324219 12.066406 80.886719 13.191406 80.886719 14.316406 C 80.886719 16.652344 80.886719 19.019531 80.886719 21.355469 C 80.886719 22.125 80.5625 23.042969 80.117188 23.8125 C 79.554688 24.492188 78.902344 25.054688 77.984375 25.378906 C 77.21875 25.707031 76.300781 25.707031 75.414062 25.617188 C 74.40625 25.5 73.28125 25.171875 72.160156 24.730469 L 71.386719 26.949219 C 72.628906 27.390625 73.960938 27.835938 75.292969 27.953125 C 76.417969 28.070312 77.542969 27.953125 78.636719 27.628906 C 79.96875 27.183594 81.09375 26.386719 81.890625 25.292969 C 82.660156 24.167969 83.222656 22.835938 83.222656 21.503906 C 83.222656 21.269531 83.222656 21.179688 83.222656 20.941406 L 83.222656 14.34375 C 83.222656 12.539062 82.421875 10.855469 81.210938 9.640625 C 79.96875 8.398438 78.3125 7.628906 76.421875 7.628906 Z M 76.421875 7.628906 "/>
<path style=" stroke:none;fill-rule:nonzero;fill:rgb(100%,100%,100%);fill-opacity:1;" d="M 8.710938 9.167969 L 8.710938 16.445312 C 8.710938 17.214844 8.386719 17.894531 7.941406 18.339844 C 7.5 18.78125 6.820312 19.109375 6.167969 19.109375 C 5.398438 19.109375 4.71875 18.875 4.15625 18.339844 C 3.355469 17.570312 3.355469 16.773438 3.355469 15.648438 L 1.109375 15.648438 C 1.109375 17.335938 1.109375 18.664062 2.441406 19.789062 C 3.503906 20.824219 4.957031 21.148438 6.167969 21.148438 C 7.617188 21.148438 8.859375 20.703125 9.75 19.90625 C 10.546875 19.136719 11.078125 18.011719 11.078125 16.652344 L 11.078125 7.925781 L 9.957031 7.925781 C 9.273438 7.925781 8.710938 8.371094 8.710938 9.167969 Z M 8.710938 9.167969 "/>
<path style=" stroke:none;fill-rule:nonzero;fill:rgb(100%,100%,100%);fill-opacity:1;" d="M 48.878906 7.628906 C 46.746094 7.628906 45.417969 8.636719 44.851562 9.523438 C 44.320312 8.636719 42.988281 7.628906 40.859375 7.628906 C 39.527344 7.628906 38.285156 8.074219 37.398438 8.871094 C 36.597656 9.640625 36.066406 10.648438 36.066406 12.007812 L 36.066406 20.855469 L 38.402344 20.855469 L 38.402344 12.246094 C 38.402344 11.566406 38.730469 10.914062 39.171875 10.46875 C 39.734375 9.90625 40.414062 9.699219 41.066406 9.699219 C 41.746094 9.699219 42.398438 9.9375 42.960938 10.46875 C 43.402344 10.914062 43.757812 11.59375 43.757812 12.246094 L 43.757812 20.855469 L 46.007812 20.855469 L 46.007812 12.246094 C 46.007812 11.566406 46.332031 10.914062 46.777344 10.46875 C 47.339844 9.90625 48.019531 9.699219 48.667969 9.699219 C 49.351562 9.699219 50 9.9375 50.5625 10.46875 C 51.007812 10.914062 51.332031 11.59375 51.332031 12.246094 L 51.332031 20.855469 L 53.667969 20.855469 L 53.667969 12.007812 C 53.667969 10.675781 53.105469 9.671875 52.339844 8.871094 C 51.449219 8.074219 50.207031 7.628906 48.878906 7.628906 Z M 48.878906 7.628906 "/>
<path style=" stroke:none;fill-rule:nonzero;fill:rgb(100%,100%,100%);fill-opacity:1;" d="M 18.472656 10.871094 C 20.429688 10.871094 21.492188 12.027344 22.203125 13.515625 C 22.53125 14.203125 22.726562 14.9375 23.023438 15.636719 C 24.054688 18.125 25.882812 19.796875 28.671875 19.796875 C 32.035156 19.796875 34.765625 17.050781 34.765625 13.726562 C 34.765625 10.355469 32.039062 7.632812 28.675781 7.632812 C 26.949219 7.632812 25.394531 8.351562 24.289062 9.507812 C 23.28125 8.46875 21.871094 7.632812 19.585938 7.632812 C 17.285156 7.628906 14.992188 8.722656 13.855469 10.515625 C 15.160156 9.199219 16.828125 8.582031 18.484375 8.585938 C 21.367188 8.589844 23.503906 10.390625 24.519531 13.050781 C 24.9375 10.769531 26.773438 9.511719 28.675781 9.511719 C 31 9.511719 32.882812 11.398438 32.882812 13.722656 C 32.882812 16 30.988281 17.914062 28.671875 17.910156 C 26.71875 17.910156 25.65625 16.75 24.945312 15.261719 C 24.617188 14.578125 24.417969 13.839844 24.125 13.140625 C 23.09375 10.652344 21.261719 8.980469 18.472656 8.980469 C 15.113281 8.980469 12.382812 11.730469 12.382812 15.050781 C 12.382812 18.421875 15.109375 21.148438 18.46875 21.148438 C 20.195312 21.148438 21.75 20.425781 22.859375 19.273438 C 23.867188 20.308594 25.273438 21.148438 27.558594 21.148438 C 29.859375 21.148438 32.152344 20.058594 33.292969 18.261719 C 31.984375 19.578125 30.320312 20.195312 28.660156 20.195312 C 25.777344 20.1875 23.640625 18.386719 22.628906 15.730469 C 22.210938 18.007812 20.371094 19.265625 18.46875 19.265625 C 16.144531 19.265625 14.261719 17.378906 14.261719 15.054688 C 14.261719 12.78125 16.160156 10.867188 18.472656 10.871094 Z M 18.472656 10.871094 "/>
<path style=" stroke:none;fill-rule:nonzero;fill:rgb(100%,100%,100%);fill-opacity:1;" d="M 140.804688 10.28125 L 141.257812 10.195312 C 141.511719 9.929688 141.441406 9.296875 141.15625 9.171875 C 140.453125 9.234375 139.617188 9.265625 138.6875 9.265625 C 137.882812 9.265625 137.117188 9.238281 136.058594 9.179688 C 135.734375 9.304688 135.734375 9.992188 135.929688 10.207031 L 136.472656 10.320312 C 137.023438 10.433594 137.28125 10.578125 137.28125 10.722656 C 137.28125 10.929688 137.1875 11.34375 136.992188 11.859375 C 136.480469 13.210938 135.972656 14.640625 135.203125 16.324219 C 134.492188 14.925781 133.601562 13.035156 133.015625 11.632812 C 132.824219 11.136719 132.761719 10.96875 132.761719 10.730469 C 132.761719 10.582031 133.207031 10.4375 133.949219 10.289062 L 134.425781 10.203125 C 134.648438 10.085938 134.679688 9.214844 134.328125 9.179688 C 132.273438 9.242188 130.675781 9.273438 128.652344 9.273438 L 122.175781 9.28125 C 120.828125 9.28125 119.800781 9.257812 118.488281 9.199219 C 118.167969 9.355469 118.167969 9.988281 118.382812 10.226562 L 118.96875 10.367188 C 119.515625 10.511719 119.835938 10.628906 120.289062 11.476562 C 121.859375 14.507812 123.4375 17.855469 124.980469 21.148438 C 125.175781 21.320312 125.394531 21.355469 125.71875 21.355469 C 126.039062 21.347656 126.265625 21.320312 126.457031 21.144531 C 127.195312 19.691406 129.113281 15.808594 129.9375 14.296875 C 130.902344 16.152344 132.578125 19.566406 133.25 21.140625 C 133.449219 21.3125 133.671875 21.34375 133.988281 21.34375 C 134.308594 21.34375 134.535156 21.3125 134.734375 21.136719 C 136.074219 18.046875 137.542969 14.832031 139.011719 11.859375 C 139.527344 10.78125 139.746094 10.488281 140.804688 10.28125 Z M 128.878906 12.863281 C 128.722656 13.449219 127.632812 15.550781 127.1875 16.335938 C 126.636719 15.40625 125.351562 12.78125 124.90625 11.757812 C 124.707031 11.332031 124.613281 10.976562 124.613281 10.800781 C 124.613281 10.484375 125.21875 10.359375 126.25 10.359375 C 126.824219 10.359375 127.339844 10.390625 127.78125 10.476562 C 128.425781 10.589844 128.976562 11.523438 128.976562 11.988281 C 128.980469 12.226562 128.980469 12.480469 128.878906 12.863281 Z M 128.878906 12.863281 "/>
<path style=" stroke:none;fill-rule:nonzero;fill:rgb(100%,100%,100%);fill-opacity:1;" d="M 151.015625 17.324219 C 150.152344 18.671875 148.929688 18.84375 148.035156 18.84375 C 145.046875 18.847656 143.503906 16.722656 143.503906 14.539062 C 143.503906 14.070312 143.570312 14.011719 144.308594 14.011719 L 150.460938 14.003906 C 151.460938 14 151.613281 13.589844 151.613281 13.042969 C 151.609375 10.796875 149.816406 8.84375 146.476562 8.847656 C 142.46875 8.855469 139.558594 11.714844 139.558594 15.386719 C 139.570312 18.566406 141.90625 21.332031 146.238281 21.324219 C 148.164062 21.324219 150.539062 20.476562 151.84375 17.996094 C 151.847656 17.5 151.363281 17.265625 151.015625 17.324219 Z M 146.257812 10.1875 C 147.34375 10.1875 147.960938 10.828125 147.960938 11.785156 C 147.960938 12.082031 147.894531 12.371094 147.738281 12.460938 C 147.386719 12.664062 146.867188 12.722656 146.425781 12.722656 L 145.234375 12.722656 C 144.203125 12.730469 143.753906 12.699219 143.753906 12.289062 C 143.757812 11.363281 144.914062 10.195312 146.257812 10.1875 Z M 146.257812 10.1875 "/>
<path style=" stroke:none;fill-rule:nonzero;fill:rgb(100%,100%,100%);fill-opacity:1;" d="M 174.253906 10.242188 L 174.703125 10.148438 C 174.957031 9.890625 174.894531 9.25 174.601562 9.128906 C 173.898438 9.1875 173.0625 9.21875 172.136719 9.21875 C 171.332031 9.21875 170.5625 9.195312 169.503906 9.132812 C 169.183594 9.257812 169.183594 9.953125 169.378906 10.15625 L 169.921875 10.273438 C 170.464844 10.386719 170.730469 10.527344 170.730469 10.679688 C 170.730469 10.882812 170.625 11.292969 170.4375 11.816406 C 169.925781 13.164062 169.414062 14.589844 168.648438 16.285156 C 167.941406 14.882812 167.039062 12.996094 166.460938 11.589844 C 166.269531 11.09375 166.203125 10.921875 166.203125 10.6875 C 166.203125 10.542969 166.648438 10.398438 167.386719 10.246094 L 167.863281 10.164062 C 168.09375 10.039062 168.125 9.167969 167.773438 9.140625 C 165.722656 9.199219 164.113281 9.230469 162.097656 9.234375 L 155.621094 9.242188 C 154.269531 9.246094 153.242188 9.21875 151.929688 9.160156 C 151.605469 9.304688 151.609375 9.953125 151.835938 10.183594 L 152.414062 10.328125 C 152.957031 10.472656 153.277344 10.585938 153.730469 11.429688 C 155.296875 14.460938 156.882812 17.8125 158.425781 21.105469 C 158.621094 21.28125 158.839844 21.3125 159.164062 21.3125 C 159.484375 21.3125 159.707031 21.277344 159.898438 21.105469 C 160.636719 19.648438 162.550781 15.765625 163.386719 14.246094 C 164.347656 16.109375 166.027344 19.523438 166.695312 21.09375 C 166.886719 21.269531 167.117188 21.300781 167.429688 21.300781 C 167.753906 21.300781 167.980469 21.269531 168.171875 21.09375 C 169.515625 18.007812 170.988281 14.789062 172.457031 11.816406 C 172.972656 10.734375 173.195312 10.441406 174.253906 10.242188 Z M 162.324219 12.824219 C 162.171875 13.40625 161.082031 15.507812 160.632812 16.292969 C 160.089844 15.359375 158.800781 12.738281 158.355469 11.714844 C 158.160156 11.285156 158.054688 10.929688 158.054688 10.753906 C 158.054688 10.433594 158.664062 10.320312 159.695312 10.320312 C 160.273438 10.316406 160.785156 10.347656 161.230469 10.433594 C 161.875 10.542969 162.421875 11.484375 162.421875 11.945312 C 162.421875 12.183594 162.421875 12.441406 162.324219 12.824219 Z M 162.324219 12.824219 "/>
<path style=" stroke:none;fill-rule:nonzero;fill:rgb(100%,100%,100%);fill-opacity:1;" d="M 180.453125 8.804688 C 176.671875 8.804688 173.050781 11.117188 173.085938 15.285156 C 173.125 19.308594 176.460938 21.289062 180.28125 21.285156 C 184.222656 21.277344 187.652344 19.265625 187.648438 15 C 187.644531 10.890625 184.238281 8.800781 180.453125 8.804688 Z M 180.628906 19.941406 C 178.773438 19.945312 177.710938 17.695312 177.703125 14.636719 C 177.703125 11.464844 178.847656 10.148438 180.269531 10.140625 C 182.09375 10.140625 182.996094 12.589844 183.027344 15.417969 C 183.066406 18.042969 182.453125 19.9375 180.628906 19.941406 Z M 180.628906 19.941406 "/>
<path style=" stroke:none;fill-rule:nonzero;fill:rgb(100%,100%,100%);fill-opacity:1;" d="M 193.1875 11.292969 C 193.378906 11.292969 193.664062 11.320312 194.40625 11.875 C 194.820312 12.226562 195.207031 12.398438 195.660156 12.398438 C 196.683594 12.398438 197.710938 11.84375 197.707031 10.5 C 197.707031 9.394531 196.808594 8.78125 195.941406 8.78125 C 194.589844 8.785156 193.667969 9.746094 192.796875 10.246094 C 192.542969 10.1875 192.480469 10.097656 192.480469 9.894531 C 192.480469 9.628906 192.542969 9.226562 192.605469 8.644531 C 192.480469 8.46875 192.28125 8.378906 192.03125 8.378906 C 191.035156 8.960938 188.824219 9.75 187.34375 10.132812 C 187.121094 10.3125 187.121094 10.828125 187.34375 11.011719 L 187.800781 11.265625 C 188.410156 11.617188 188.410156 11.96875 188.414062 13.140625 L 188.414062 17.539062 C 188.417969 19.582031 188.292969 19.839844 187.234375 19.933594 L 186.621094 19.988281 C 186.367188 20.167969 186.371094 20.835938 186.65625 21.011719 C 187.714844 20.949219 189.125 20.921875 190.441406 20.914062 C 191.949219 20.914062 193.226562 20.945312 194.773438 20.996094 C 195.058594 20.824219 195.054688 20.152344 194.800781 19.976562 L 193.773438 19.890625 C 192.71875 19.8125 192.589844 19.574219 192.578125 17.535156 L 192.574219 13.042969 C 192.574219 11.933594 192.734375 11.292969 193.1875 11.292969 Z M 193.1875 11.292969 "/>
<path style=" stroke:none;fill-rule:nonzero;fill:rgb(100%,100%,100%);fill-opacity:1;" d="M 213.734375 19.898438 L 213.253906 19.808594 C 212.417969 19.664062 211.8125 19.519531 211.367188 19.144531 C 210.558594 18.472656 207.730469 14.507812 207.15625 13.582031 C 206.988281 13.347656 206.925781 13.171875 206.925781 13.085938 C 206.925781 13 206.957031 12.878906 207.121094 12.707031 C 207.566406 12.289062 208.054688 11.859375 209.265625 11.011719 C 210.128906 10.398438 210.808594 10.109375 211.417969 9.984375 L 212.441406 9.78125 C 212.664062 9.546875 212.628906 8.90625 212.308594 8.765625 C 210.417969 9.023438 207.753906 9.175781 206.246094 9.175781 L 205.476562 9.179688 C 205.152344 9.296875 205.125 9.941406 205.417969 10.199219 L 206.214844 10.320312 C 206.507812 10.339844 206.828125 10.457031 206.828125 10.605469 C 206.828125 10.78125 206.667969 11.101562 206.058594 11.765625 L 204.71875 13.203125 C 204.074219 13.875 203.398438 14.023438 202.855469 14.023438 C 202.5 14.023438 202.402344 13.933594 202.402344 13.609375 L 202.394531 4.457031 C 202.394531 2.617188 202.425781 1.394531 202.484375 0.199219 C 202.363281 0.0507812 202.128906 0 201.941406 0 C 200.300781 0.636719 198.355469 1.339844 197.035156 1.636719 C 196.808594 1.816406 196.808594 2.339844 197.035156 2.515625 L 197.578125 2.808594 C 198.226562 3.152344 198.226562 3.464844 198.230469 4.636719 L 198.246094 17.464844 C 198.246094 19.507812 198.113281 19.746094 196.960938 19.859375 L 196.347656 19.921875 C 196.09375 20.097656 196.09375 20.769531 196.386719 20.941406 C 197.503906 20.878906 198.828125 20.847656 200.296875 20.847656 C 201.773438 20.847656 203.121094 20.875 204.144531 20.929688 C 204.441406 20.761719 204.433594 20.082031 204.175781 19.914062 L 203.667969 19.847656 C 202.535156 19.738281 202.410156 19.507812 202.410156 17.460938 L 202.40625 15.773438 C 202.402344 15.21875 202.566406 15.070312 202.789062 15.070312 C 203.113281 15.070312 203.371094 15.1875 203.589844 15.507812 L 205.875 18.65625 C 206.128906 19.003906 206.421875 19.464844 206.421875 19.589844 C 206.421875 19.699219 206.230469 19.757812 205.914062 19.816406 L 205.492188 19.910156 C 205.238281 20.171875 205.296875 20.785156 205.617188 20.929688 C 206.515625 20.867188 207.671875 20.832031 209.570312 20.832031 C 211.429688 20.832031 212.617188 20.863281 213.609375 20.917969 C 213.925781 20.804688 213.988281 20.097656 213.734375 19.898438 Z M 213.734375 19.898438 "/>
<path style=" stroke:none;fill-rule:nonzero;fill:rgb(100%,100%,100%);fill-opacity:1;" d="M 107.152344 7.21875 C 106.472656 6.84375 105.695312 6.628906 104.863281 6.628906 C 103.390625 6.628906 102.078125 7.296875 101.210938 8.347656 C 100.335938 7.296875 99.023438 6.628906 97.550781 6.628906 C 96.722656 6.628906 95.945312 6.84375 95.261719 7.21875 C 93.800781 8.027344 92.808594 9.585938 92.808594 11.375 C 92.808594 11.886719 92.894531 12.378906 93.042969 12.835938 C 93.859375 16.5 101.210938 21.113281 101.210938 21.113281 C 101.210938 21.113281 108.554688 16.5 109.371094 12.835938 C 109.523438 12.378906 109.605469 11.886719 109.605469 11.375 C 109.605469 9.585938 108.617188 8.03125 107.152344 7.21875 Z M 107.152344 7.21875 "/>
</g>
</svg>
